<?xml version="1.0" standalone="no"?><!DOCTYPE svg PUBLIC "-//W3C//DTD SVG 1.1//EN" "http://www.w3.org/Graphics/SVG/1.1/DTD/svg11.dtd"><svg t="1741232905010" class="icon" viewBox="0 0 1024 1024" version="1.1" xmlns="http://www.w3.org/2000/svg" p-id="1812" xmlns:xlink="http://www.w3.org/1999/xlink" width="128" height="128"><path d="M819.2 415.744c0-16.896-2.56-32.768-6.144-48.128-4.096-19.456-11.264-35.84-19.968-48.64C758.272 259.584 693.76 220.16 619.52 220.16c-39.424 0-76.288 11.264-107.52 30.72-31.232-19.456-68.096-30.72-107.52-30.72-74.24 0-138.752 39.424-173.056 98.304-9.216 12.8-15.872 29.184-19.968 48.64-4.096 15.36-6.144 31.744-6.144 48.128 0 20.992 3.584 41.472 9.728 60.416 49.664 164.352 297.472 327.68 297.472 327.68s247.296-163.84 297.472-327.68c5.632-18.944 9.216-38.912 9.216-59.904z" fill="#CCDAFF" p-id="1813"></path></svg>