<?xml version="1.0" standalone="no"?><!DOCTYPE svg PUBLIC "-//W3C//DTD SVG 1.1//EN" "http://www.w3.org/Graphics/SVG/1.1/DTD/svg11.dtd"><svg t="1740815714390" class="icon" viewBox="0 0 1024 1024" version="1.1" xmlns="http://www.w3.org/2000/svg" p-id="23173" xmlns:xlink="http://www.w3.org/1999/xlink" width="64" height="64"><path d="M512 494.867692c-126.542769 0-257.378462-118.311385-262.892308-123.352615l53.129846-58.171077c31.389538 28.593231 130.284308 102.715077 209.762462 102.715077 87.670154 0 180.184615-73.255385 208.462769-101.494154l55.689846 55.729231C771.032615 375.414154 649.885538 494.867692 512 494.867692z" fill="#ffffff" p-id="23174"></path><path d="M787.692308 984.615385 236.307692 984.615385c-108.583385 0-196.923077-85.267692-196.923077-190.070154L39.384615 229.454769C39.384615 124.652308 127.724308 39.384615 236.307692 39.384615l551.384615 0c108.583385 0 196.923077 85.267692 196.923077 190.070154l0 565.090462C984.615385 899.347692 896.275692 984.615385 787.692308 984.615385zM236.307692 118.153846C171.165538 118.153846 118.153846 168.093538 118.153846 229.454769l0 565.090462C118.153846 855.906462 171.165538 905.846154 236.307692 905.846154l551.384615 0c65.142154 0 118.153846-49.939692 118.153846-111.300923L905.846154 229.454769C905.846154 168.093538 852.834462 118.153846 787.692308 118.153846L236.307692 118.153846z" fill="#ffffff" p-id="23175"></path></svg>